<svg xmlns="http://www.w3.org/2000/svg" xml:space="preserve" width="1.76666in" height="1.76666in" version="1.1" style="shape-rendering:geometricPrecision; text-rendering:geometricPrecision; image-rendering:optimizeQuality; fill-rule:evenodd; clip-rule:evenodd" viewBox="0 0 1767 1767" xmlns:xlink="http://www.w3.org/1999/xlink">
 <defs>
  <style type="text/css">
  </style>
 </defs>
 <g id="Layer_x0020_1">
  <metadata id="CorelCorpID_0Corel-Layer"></metadata>
  <path class="fil0" d="M869 450c-15,0 -26,-15 -22,-29l58 -216c7,-29 51,-17 43,11l-57 217c-3,10 -12,17 -22,17zm615 678l0 0 -1255 0c-50,0 -91,41 -91,90l0 383c0,50 41,90 91,90l1309 0c50,0 90,-40 90,-90l0 -383c0,-49 -40,-90 -90,-90l-54 0zm-22 -45l0 -725 -188 0c-52,0 -95,-43 -95,-95l0 -188 -698 0c-97,0 -176,80 -176,177l0 831 1157 0zm45 -744l0 744 31 0c75,0 136,61 136,135l0 383c0,75 -61,136 -136,136l-1309 0c-75,0 -136,-61 -136,-136l0 -383c0,-74 61,-135 136,-135l31 0 0 -831c0,-122 99,-222 221,-222l721 0c7,0 12,3 17,7l280 280c6,6 10,13 8,22zm-282 -231l0 155c0,27 22,49 49,49l156 0 -205 -204zm73 846l-798 0c-30,0 -30,-46 0,-46l798 0c30,0 30,46 0,46zm0 -175l-798 0c-30,0 -30,-45 0,-45l798 0c30,0 30,45 0,45zm0 -174l-798 0c-30,0 -30,-46 0,-46l798 0c30,0 30,46 0,46zm-713 979c-13,0 -23,-10 -23,-23l0 -303c0,-12 10,-22 23,-22l140 0c62,0 112,50 112,112 0,62 -50,113 -112,113l-117 0 0 100c0,13 -11,23 -23,23zm23 -169l117 0c88,0 88,-134 0,-134l-117 0 0 134zm461 169c-13,0 -23,-10 -23,-23l0 -119 -109 -171c-16,-26 22,-50 38,-25l94 148 94 -148c16,-25 54,-1 38,25l-109 171 0 119c0,13 -11,23 -23,23zm-52 -1138c-20,0 -30,-25 -16,-39l91 -91 -91 -92c-21,-21 11,-53 32,-32l108 107c8,9 8,24 0,33l-108 107c-4,4 -10,7 -16,7zm-239 0c-6,0 -12,-3 -16,-7l-107 -107c-9,-9 -9,-24 0,-33l107 -107c21,-21 53,11 32,32l-91 92 91 91c14,14 4,39 -16,39z"></path>
 </g>
</svg>