<svg xmlns="http://www.w3.org/2000/svg" xmlns:xlink="http://www.w3.org/1999/xlink" viewBox="0,0,256,256" width="30px" height="30px"><g transform="translate(-42.24,-42.24) scale(1.33,1.33)"><g fill="" fill-rule="nonzero" stroke="none" stroke-width="1" stroke-linecap="butt" stroke-linejoin="miter" stroke-miterlimit="10" stroke-dasharray="" stroke-dashoffset="0" font-family="none" font-weight="none" font-size="none" text-anchor="none" style="mix-blend-mode: normal"><g transform="translate(0,2.56) scale(3.2,3.2)"><path d="M26.81641,9c-9.27344,0 -16.81641,7.54297 -16.81641,16.81641v26.36719c0,9.27344 7.54297,16.81641 16.81641,16.81641h26.36719c9.27344,0 16.81641,-7.54297 16.81641,-16.81641v-26.36719c0,-9.27344 -7.54297,-16.81641 -16.81641,-16.81641zM26.81641,11h26.36719c8.19141,0 14.81641,6.625 14.81641,14.81641v26.36719c0,8.19141 -6.625,14.81641 -14.81641,14.81641h-26.36719c-8.19141,0 -14.81641,-6.625 -14.81641,-14.81641v-26.36719c0,-8.19141 6.625,-14.81641 14.81641,-14.81641zM58,19.5c-1.37891,0 -2.5,1.12109 -2.5,2.5c0,1.37891 1.12109,2.5 2.5,2.5c1.37891,0 2.5,-1.12109 2.5,-2.5c0,-1.37891 -1.12109,-2.5 -2.5,-2.5zM40,22c-9.37891,0 -17,7.62109 -17,17c0,9.37891 7.62109,17 17,17c9.37891,0 17,-7.62109 17,-17c0,-9.37891 -7.62109,-17 -17,-17zM40,24c8.29688,0 15,6.70313 15,15c0,8.29688 -6.70312,15 -15,15c-8.29687,0 -15,-6.70312 -15,-15c0,-8.29687 6.70313,-15 15,-15zM40,27c-0.55078,0 -1,0.44922 -1,1c0,0.55078 0.44922,1 1,1c0.55078,0 1,-0.44922 1,-1c0,-0.55078 -0.44922,-1 -1,-1zM35.79688,27.83594c-0.13281,0 -0.26562,0.02344 -0.39062,0.07422c-0.50781,0.21484 -0.75,0.79688 -0.53906,1.30859c0.21094,0.51172 0.79688,0.75391 1.30469,0.54297c0.51172,-0.21484 0.75391,-0.79687 0.54297,-1.30859c-0.15234,-0.37109 -0.51562,-0.61328 -0.91797,-0.61719zM44.23047,27.83594c-0.41406,-0.00781 -0.78906,0.23438 -0.94531,0.61719c-0.21094,0.51172 0.03125,1.09375 0.54297,1.30859c0.50781,0.21094 1.09375,-0.03125 1.30469,-0.54297c0.21094,-0.51172 -0.03125,-1.09375 -0.53906,-1.30859c-0.11719,-0.04687 -0.23828,-0.07031 -0.36328,-0.07422zM32.23438,30.22266c-0.26953,-0.00391 -0.52734,0.10156 -0.71875,0.29297c-0.39062,0.39063 -0.39062,1.02344 0,1.41406c0.39063,0.39063 1.02344,0.39063 1.41406,0c0.39063,-0.39062 0.39063,-1.02344 0,-1.41406c-0.18359,-0.18359 -0.43359,-0.28906 -0.69531,-0.29297zM47.79297,30.22266c-0.27344,-0.00391 -0.53125,0.10156 -0.72266,0.29297c-0.39062,0.39063 -0.39062,1.02344 0,1.41406c0.39063,0.39063 1.02344,0.39063 1.41406,0c0.39063,-0.39062 0.39063,-1.02344 0,-1.41406c-0.18359,-0.18359 -0.43359,-0.28906 -0.69141,-0.29297zM50.17188,33.78906c-0.13672,0 -0.26953,0.02344 -0.39062,0.07422c-0.51172,0.21484 -0.75391,0.79688 -0.54297,1.30859c0.21094,0.51172 0.79688,0.75391 1.30859,0.54297c0.50781,-0.21484 0.75,-0.79687 0.53906,-1.30859c-0.15234,-0.37109 -0.51562,-0.61328 -0.91406,-0.61719zM29.85938,33.79297c-0.41406,-0.01172 -0.78906,0.23438 -0.94531,0.61328c-0.21094,0.51172 0.03125,1.09766 0.53906,1.30859c0.24609,0.10156 0.52344,0.10156 0.76953,0c0.24219,-0.10156 0.4375,-0.29687 0.53906,-0.54297c0.10156,-0.24609 0.10156,-0.51953 0,-0.76562c-0.10156,-0.24609 -0.29687,-0.44141 -0.54297,-0.54297c-0.11328,-0.04297 -0.23437,-0.07031 -0.35937,-0.07031zM29,38c-0.55078,0 -1,0.44922 -1,1c0,0.55078 0.44922,1 1,1c0.55078,0 1,-0.44922 1,-1c0,-0.55078 -0.44922,-1 -1,-1zM51,38c-0.55078,0 -1,0.44922 -1,1c0,0.55078 0.44922,1 1,1c0.55078,0 1,-0.44922 1,-1c0,-0.55078 -0.44922,-1 -1,-1zM29.84375,42.20703c-0.13281,0 -0.26562,0.02734 -0.39062,0.07813c-0.50781,0.21094 -0.75,0.79688 -0.53906,1.30859c0.21094,0.50781 0.79688,0.75 1.30469,0.53906c0.51172,-0.21094 0.75391,-0.79687 0.54297,-1.30469c-0.15234,-0.37109 -0.51562,-0.61719 -0.91797,-0.62109zM50.1875,42.20703c-0.41406,-0.00781 -0.78906,0.23828 -0.94922,0.61719c-0.21094,0.51172 0.03125,1.09375 0.54297,1.30469c0.51172,0.21484 1.09375,-0.02734 1.30859,-0.53906c0.21094,-0.51172 -0.03125,-1.09375 -0.54297,-1.30859c-0.11328,-0.04687 -0.23828,-0.07031 -0.35937,-0.07422zM32.23438,45.77734c-0.26953,-0.00391 -0.53125,0.10156 -0.71875,0.29297c-0.39062,0.39063 -0.39062,1.02344 0,1.41406c0.38672,0.39063 1.02344,0.39063 1.41016,0c0.39063,-0.39062 0.39063,-1.02344 0,-1.41406c-0.18359,-0.18359 -0.42969,-0.28906 -0.69141,-0.29297zM47.79297,45.78125c-0.27344,-0.00781 -0.53125,0.09766 -0.72266,0.28906c-0.1875,0.1875 -0.29297,0.44141 -0.29297,0.70703c0,0.26563 0.10547,0.51953 0.29297,0.70703c0.39063,0.39063 1.02344,0.39063 1.41406,0c0.1875,-0.1875 0.29297,-0.44141 0.29297,-0.70703c0,-0.26562 -0.10547,-0.51953 -0.29297,-0.70703c-0.18359,-0.18359 -0.43359,-0.28906 -0.69141,-0.28906zM35.8125,48.16016c-0.41406,-0.00781 -0.78906,0.23828 -0.94531,0.62109c-0.21094,0.50781 0.03125,1.09375 0.53906,1.30469c0.51172,0.21094 1.09766,-0.03125 1.30859,-0.53906c0.21094,-0.51172 -0.03125,-1.09766 -0.54297,-1.30859c-0.11328,-0.04687 -0.23437,-0.07422 -0.35937,-0.07812zM44.21875,48.16016c-0.13281,0 -0.26562,0.02734 -0.39062,0.07813c-0.51172,0.21094 -0.75391,0.79688 -0.54297,1.30859c0.21484,0.50781 0.79688,0.75 1.30859,0.53906c0.51172,-0.21094 0.75391,-0.79687 0.54297,-1.30469c-0.15625,-0.37109 -0.51562,-0.61719 -0.91797,-0.62109zM40,49c-0.55078,0 -1,0.44922 -1,1c0,0.55078 0.44922,1 1,1c0.55078,0 1,-0.44922 1,-1c0,-0.55078 -0.44922,-1 -1,-1z"></path></g></g></g></svg>