<svg version="1.1" id="Layer_1" xmlns="http://www.w3.org/2000/svg" xmlns:xlink="http://www.w3.org/1999/xlink" x="0px" y="0px" viewBox="0 0 79 79" style="enable-background:new 0 0 79 79;" xml:space="preserve">
<style type="text/css">
	.st0{fill:none;}
	.st1{fill:#F5E2CA;stroke:#F5E2CA;stroke-width:1;stroke-miterlimit:10;}
	.st2{fill:#F5E2CA;stroke:#F5E2CA;stroke-width:1;stroke-miterlimit:10;}
</style>
<g id="Lag_2">
	<rect class="st0" width="79" height="79"></rect>
</g>
<g id="Lag_3">
	<g>
		<path class="st1" d="M75,4v71H4V4H75 M79,0H0v79h79V0L79,0z"></path>
	</g>
	<g>
		<path class="st2" d="M21.2,57.2V21.5h4.2v31.9h15.7v3.8H21.2z"></path>
		<path class="st2" d="M58.8,30c1.2,0,2.3,0.1,3.2,0.3L61.4,34c-1.1-0.2-2.1-0.4-2.9-0.4c-2.2,0-4,0.9-5.6,2.6s-2.3,3.9-2.3,6.6
			v14.4h-4.1V30.5h3.3l0.5,5h0.2c1-1.7,2.2-3.1,3.6-4C55.6,30.4,57.1,30,58.8,30z"></path>
	</g>
</g>
</svg>