<svg xmlns="http://www.w3.org/2000/svg" xmlns:xlink="http://www.w3.org/1999/xlink" viewBox="0,0,256,256" width="30px" height="30px"><g transform="translate(-25.6,-25.6) scale(1.2,1.2)"><g fill="" fill-rule="nonzero" stroke="none" stroke-width="1" stroke-linecap="butt" stroke-linejoin="miter" stroke-miterlimit="10" stroke-dasharray="" stroke-dashoffset="0" font-family="none" font-weight="none" font-size="none" text-anchor="none" style="mix-blend-mode: normal"><g transform="scale(5.33333,5.33333)"><path d="M24,4c-2.68218,0 -5.2485,0.5299 -7.58984,1.49023c-0.5046,0.19739 -0.86353,0.65155 -0.93901,1.1881c-0.07547,0.53655 0.14425,1.0721 0.57481,1.40104c0.43056,0.32894 1.00504,0.40013 1.50287,0.18626c1.98865,-0.81567 4.16335,-1.26562 6.45117,-1.26562c9.40629,0 17,7.59371 17,17c0,4.84912 -2.02013,9.20515 -5.26758,12.30273c-0.4054,0.36568 -0.58013,0.92274 -0.4562,1.45445c0.12393,0.53171 0.52694,0.95412 1.05225,1.10287c0.52531,0.14876 1.08996,0.00038 1.47427,-0.3874c3.81655,-3.64041 6.19727,-8.78777 6.19727,-14.47266c0,-11.02771 -8.97229,-20 -20,-20zM10.14648,10.25195c-0.44184,-0.00345 -0.86273,0.18806 -1.15039,0.52344c-3.10796,3.52293 -4.99609,8.16254 -4.99609,13.22461c0,11.02771 8.97229,20 20,20c2.34235,0 4.59494,-0.40463 6.6875,-1.14648c0.50525,-0.17894 0.87665,-0.61385 0.97427,-1.14089c0.09762,-0.52704 -0.09337,-1.06612 -0.50101,-1.41415c-0.40764,-0.34803 -0.97,-0.45213 -1.47521,-0.27308c-1.77745,0.63014 -3.6879,0.97461 -5.68555,0.97461c-9.40629,0 -17,-7.59371 -17,-17c0,-4.31793 1.60205,-8.24316 4.24609,-11.24023c0.39722,-0.43805 0.50004,-1.06857 0.26259,-1.61012c-0.23746,-0.54155 -0.77089,-0.89309 -1.3622,-0.89769zM15.5,13c-1.38071,0 -2.5,1.11929 -2.5,2.5c0,1.38071 1.11929,2.5 2.5,2.5c1.38071,0 2.5,-1.11929 2.5,-2.5c0,-1.38071 -1.11929,-2.5 -2.5,-2.5zM14,20c-0.553,0 -1,0.447 -1,1v13c0,0.553 0.447,1 1,1h3c0.553,0 1,-0.447 1,-1v-13c0,-0.553 -0.447,-1 -1,-1zM21,20c-0.553,0 -1,0.447 -1,1v13c0,0.553 0.447,1 1,1h3c0.553,0 1,-0.447 1,-1v-7.5c0,-1.379 1.121,-2.5 2.5,-2.5c1.379,0 2.5,1.121 2.5,2.5v7.5c0,0.553 0.447,1 1,1h3c0.553,0 1,-0.447 1,-1v-8c0,-3.309 -2.691,-6 -6,-6c-1.538,0 -2.937,0.58602 -4,1.54102v-0.54102c0,-0.553 -0.447,-1 -1,-1z"></path></g></g></g></svg>